<svg width="18" height="18" viewBox="0 0 18 18" fill="none" xmlns="http://www.w3.org/2000/svg">
<g clip-path="url(#clip0_29407_109170)">
<path d="M8.81646 3.34434C9.0888 3.31903 9.3574 3.4034 9.59833 3.52668C10.803 4.34418 12.3513 4.95215 13.5185 5.78981C14.2727 6.33121 14.2619 6.97762 13.8579 7.74403C13.1904 9.01012 12.2997 9.85153 10.7829 9.90309C10.519 10.0423 10.7397 10.2354 10.8101 10.4229C11.1607 11.3567 11.1747 12.2436 10.7285 13.1478C10.2476 14.1223 9.65318 15.1264 8.40162 14.5109C7.06849 13.8551 5.77005 12.9045 4.43927 12.2201C3.76662 11.6848 3.73662 11.0989 4.1074 10.3639C4.76271 9.06497 5.67818 8.1884 7.21755 8.1345C7.48146 7.99528 7.26068 7.80215 7.19037 7.61465C6.82427 6.64059 6.82943 5.75418 7.30662 4.81997C7.63521 4.17684 8.01443 3.41981 8.81646 3.34434ZM8.91771 4.46465C8.8399 4.48622 8.78787 4.53965 8.73865 4.59965C8.41615 4.99575 8.04443 5.82215 8.04771 6.33403C8.05333 7.2345 8.82068 7.73934 8.26849 8.65668C7.83068 9.38418 7.18474 9.16153 6.52052 9.4034C5.81458 9.66075 5.33693 10.3137 5.04302 10.9812C5.00646 11.0642 4.96005 11.1354 5.00927 11.2278L9.08833 13.5786C9.14974 13.5772 9.2238 13.4839 9.26083 13.4365C9.58568 13.0179 9.95365 12.2351 9.95037 11.7036C9.94521 10.8565 9.23412 10.3142 9.6738 9.46246C10.1135 8.61075 10.8166 8.88309 11.5047 8.6234C12.1905 8.36465 12.6701 7.70746 12.956 7.0545C12.9921 6.97153 13.039 6.90028 12.9897 6.80793L8.91724 4.46371L8.91771 4.46465Z" fill="#512DA8"/>
<path d="M13.9918 13.8241H13.1659C13.1242 13.8241 12.9118 13.7064 12.8659 13.667C12.4979 13.352 12.6976 12.7469 13.1996 12.6995C13.9126 12.6325 14.7278 12.753 15.452 12.7C15.7323 12.7539 15.9024 12.9634 15.9273 13.2433C15.9756 13.7852 15.9756 14.8445 15.9273 15.3864C15.887 15.8411 15.4149 16.0956 15.0292 15.8238C14.9565 15.7727 14.8009 15.5716 14.8009 15.49V14.6303C13.9135 15.4867 12.8963 16.1805 11.7254 16.5958C7.44338 18.1155 2.70666 15.8003 1.32666 11.4991C1.10447 10.8072 0.8626 9.64189 0.948381 8.92751C0.9976 8.51876 1.50572 8.31767 1.84041 8.56517C2.1751 8.81267 2.04244 9.20079 2.07244 9.52657C2.29276 11.8872 3.58276 13.953 5.67151 15.0925C8.40526 16.5841 11.8464 16.0586 13.9918 13.8231V13.8241Z" fill="#512DA8"/>
<path d="M4.00781 4.20879H4.83375C4.87547 4.20879 5.08781 4.32644 5.13375 4.36582C5.50172 4.68082 5.30203 5.28597 4.8 5.33332C4.08703 5.40035 3.27187 5.27988 2.54766 5.33285C2.26734 5.27894 2.09719 5.06941 2.07234 4.78957C2.02406 4.24769 2.02406 3.18832 2.07234 2.64644C2.11266 2.19176 2.58469 1.93722 2.97047 2.2091C3.04312 2.26019 3.19875 2.46129 3.19875 2.54285V3.40254C5.29031 1.30957 8.30672 0.471443 11.1872 1.2716C14.0677 2.07176 16.3078 4.46894 16.8989 7.39535C16.9964 7.87676 17.1094 8.62394 17.0513 9.10441C17.002 9.51316 16.4939 9.71426 16.1592 9.46676C15.8386 9.22957 15.9572 8.83113 15.9272 8.50535C15.7102 6.17988 14.445 4.11691 12.3984 2.97457C9.65672 1.4441 6.17156 1.95129 4.00781 4.20879Z" fill="#512DA8"/>
</g>
<defs>
<clipPath id="clip0_29407_109170">
<rect width="18" height="18" fill="white"/>
</clipPath>
</defs>
</svg>
