<svg width="16" height="16" viewBox="0 0 16 16" fill="none" xmlns="http://www.w3.org/2000/svg">
<mask id="mask0_29407_106358" style="mask-type:alpha" maskUnits="userSpaceOnUse" x="0" y="0" width="16" height="16">
<rect width="16" height="16" fill="#D9D9D9"/>
</mask>
<g mask="url(#mask0_29407_106358)">
<path d="M2.66634 13.9987C2.29967 13.9987 1.98579 13.8681 1.72467 13.607C1.46356 13.3459 1.33301 13.032 1.33301 12.6654V5.33203C1.33301 4.96536 1.46356 4.65148 1.72467 4.39036C1.98579 4.12925 2.29967 3.9987 2.66634 3.9987H5.33301V2.66536C5.33301 2.2987 5.46356 1.98481 5.72467 1.7237C5.98579 1.46259 6.29967 1.33203 6.66634 1.33203H9.33301C9.69967 1.33203 10.0136 1.46259 10.2747 1.7237C10.5358 1.98481 10.6663 2.2987 10.6663 2.66536V3.9987H13.333C13.6997 3.9987 14.0136 4.12925 14.2747 4.39036C14.5358 4.65148 14.6663 4.96536 14.6663 5.33203V12.6654C14.6663 13.032 14.5358 13.3459 14.2747 13.607C14.0136 13.8681 13.6997 13.9987 13.333 13.9987H2.66634ZM6.66634 3.9987H9.33301V2.66536H6.66634V3.9987ZM13.333 9.9987H9.99967V10.6654C9.99967 10.8543 9.93579 11.0126 9.80801 11.1404C9.68023 11.2681 9.5219 11.332 9.33301 11.332H6.66634C6.47745 11.332 6.31912 11.2681 6.19134 11.1404C6.06356 11.0126 5.99967 10.8543 5.99967 10.6654V9.9987H2.66634V12.6654H13.333V9.9987ZM7.33301 9.9987H8.66634V8.66536H7.33301V9.9987ZM2.66634 8.66536H5.99967V7.9987C5.99967 7.80981 6.06356 7.65148 6.19134 7.5237C6.31912 7.39592 6.47745 7.33203 6.66634 7.33203H9.33301C9.5219 7.33203 9.68023 7.39592 9.80801 7.5237C9.93579 7.65148 9.99967 7.80981 9.99967 7.9987V8.66536H13.333V5.33203H2.66634V8.66536Z" fill="#0288D1"/>
</g>
</svg>
